<mxfile host="Electron" agent="Mozilla/5.0 (X11; Linux x86_64) AppleWebKit/537.36 (KHTML, like Gecko) draw.io/26.0.16 Chrome/132.0.6834.196 Electron/34.2.0 Safari/537.36" version="26.0.16">
  <diagram name="Page-1" id="yHcmIP6gJEz9MYge24Pt">
    <mxGraphModel dx="962" dy="663" grid="1" gridSize="10" guides="1" tooltips="1" connect="1" arrows="1" fold="1" page="1" pageScale="1" pageWidth="850" pageHeight="1100" math="0" shadow="0">
      <root>
        <mxCell id="0" />
        <mxCell id="1" parent="0" />
        <mxCell id="Cq55Snu3Ahrw2h7E4xgM-1" value="gfs-iscsi-01" style="rounded=0;whiteSpace=wrap;html=1;" parent="1" vertex="1">
          <mxGeometry x="20" y="230" width="160" height="20" as="geometry" />
        </mxCell>
        <mxCell id="Cq55Snu3Ahrw2h7E4xgM-2" value="gfs-iscsi-02" style="rounded=0;whiteSpace=wrap;html=1;" parent="1" vertex="1">
          <mxGeometry x="200" y="230" width="160" height="20" as="geometry" />
        </mxCell>
        <mxCell id="Cq55Snu3Ahrw2h7E4xgM-3" value="/dev/disk/by-partlabel/disk01" style="rounded=0;whiteSpace=wrap;html=1;" parent="1" vertex="1">
          <mxGeometry x="20" y="200" width="160" height="20" as="geometry" />
        </mxCell>
        <mxCell id="Cq55Snu3Ahrw2h7E4xgM-4" value="/dev/disk/by-partlabel/disk01" style="rounded=0;whiteSpace=wrap;html=1;" parent="1" vertex="1">
          <mxGeometry x="200" y="200" width="160" height="20" as="geometry" />
        </mxCell>
        <mxCell id="Cq55Snu3Ahrw2h7E4xgM-5" value="/dev/mapper/mpatha" style="rounded=0;whiteSpace=wrap;html=1;" parent="1" vertex="1">
          <mxGeometry x="20" y="170" width="160" height="20" as="geometry" />
        </mxCell>
        <mxCell id="Cq55Snu3Ahrw2h7E4xgM-6" value="/dev/mapper/mpathb" style="rounded=0;whiteSpace=wrap;html=1;" parent="1" vertex="1">
          <mxGeometry x="200" y="170" width="160" height="20" as="geometry" />
        </mxCell>
        <mxCell id="Cq55Snu3Ahrw2h7E4xgM-15" value="MD Cluster (RAID1): /dev/md/cluster-md" style="rounded=0;whiteSpace=wrap;html=1;" parent="1" vertex="1">
          <mxGeometry x="20" y="140" width="340" height="20" as="geometry" />
        </mxCell>
        <mxCell id="Cq55Snu3Ahrw2h7E4xgM-16" value="LVM Volume Group: /dev/cluster-vg" style="rounded=0;whiteSpace=wrap;html=1;" parent="1" vertex="1">
          <mxGeometry x="20" y="110" width="340" height="20" as="geometry" />
        </mxCell>
        <mxCell id="Cq55Snu3Ahrw2h7E4xgM-17" value="LVM Logical Volume: /dev/cluster-lv" style="rounded=0;whiteSpace=wrap;html=1;" parent="1" vertex="1">
          <mxGeometry x="20" y="80" width="340" height="20" as="geometry" />
        </mxCell>
        <mxCell id="Cq55Snu3Ahrw2h7E4xgM-18" value="GFS2 Mountpoint: /mnt/cluster-fs" style="rounded=0;whiteSpace=wrap;html=1;" parent="1" vertex="1">
          <mxGeometry x="20" y="50" width="340" height="20" as="geometry" />
        </mxCell>
        <mxCell id="Cq55Snu3Ahrw2h7E4xgM-19" value="gfs-01" style="rounded=0;whiteSpace=wrap;html=1;" parent="1" vertex="1">
          <mxGeometry x="20" y="20" width="100" height="20" as="geometry" />
        </mxCell>
        <mxCell id="Cq55Snu3Ahrw2h7E4xgM-22" value="gfs-03" style="rounded=0;whiteSpace=wrap;html=1;" parent="1" vertex="1">
          <mxGeometry x="260" y="20" width="100" height="20" as="geometry" />
        </mxCell>
        <mxCell id="Cq55Snu3Ahrw2h7E4xgM-23" value="gfs-02" style="rounded=0;whiteSpace=wrap;html=1;" parent="1" vertex="1">
          <mxGeometry x="140" y="20" width="100" height="20" as="geometry" />
        </mxCell>
      </root>
    </mxGraphModel>
  </diagram>
</mxfile>
